<svg xmlns="http://www.w3.org/2000/svg" viewBox="0 0 1200 630" width="1200" height="630" role="img" aria-label="Claude to Gmail to Chrome to El Al, then a plane taking off">
<defs>
  <pattern id="grid" width="24" height="24" patternUnits="userSpaceOnUse">
    <path d="M24 0H0V24" fill="none" stroke="#7dd3fc" stroke-opacity="0.05" stroke-width="1"/>
  </pattern>
  <linearGradient id="trail" x1="0" y1="1" x2="1" y2="0">
    <stop offset="0" stop-color="#7dd3fc" stop-opacity="0"/>
    <stop offset="1" stop-color="#7dd3fc" stop-opacity="0.85"/>
  </linearGradient>
  <marker id="arw" viewBox="0 0 10 10" refX="8" refY="5" markerWidth="6" markerHeight="6" orient="auto">
    <path d="M0 0L10 5L0 10z" fill="#7dd3fc"/>
  </marker>
</defs>
<rect width="1200" height="630" fill="#0a1628"/>
<rect width="1200" height="630" fill="url(#grid)"/>
<rect x="22" y="22" width="1156" height="586" rx="6" fill="none" stroke="#7dd3fc" stroke-opacity="0.5" stroke-width="2"/>
<rect x="31" y="31" width="1138" height="568" rx="4" fill="none" stroke="#7dd3fc" stroke-opacity="0.15" stroke-width="1"/>
<text x="1140" y="118" text-anchor="end" fill="#e0f2fe" font-family="Arial Hebrew, Arial, sans-serif" font-size="52" font-weight="700">האייג'נט עשה צ'ק-אין לטיסה</text>
<text x="1140" y="168" text-anchor="end" fill="#7dd3fc" font-family="Arial Hebrew, Arial, sans-serif" font-size="27">ותפס שלושה דברים שאני פספסתי</text>
<line x1="62" y1="200" x2="1140" y2="200" stroke="#7dd3fc" stroke-opacity="0.35" stroke-width="1" stroke-dasharray="4 5"/>
<rect x="62" y="303" width="138" height="138" rx="16" fill="#0f2847" fill-opacity="0.8" stroke="#7dd3fc" stroke-opacity="0.45"/>
<text x="131" y="475" text-anchor="middle" fill="#e0f2fe" font-family="IBM Plex Mono, Menlo, DejaVu Sans Mono, monospace" font-size="19" font-weight="600">Claude</text>
<text x="131" y="497" text-anchor="middle" fill="#bae6fd" fill-opacity="0.55" font-family="IBM Plex Mono, Menlo, DejaVu Sans Mono, monospace" font-size="13">the agent</text>
<line x1="208" y1="372" x2="230" y2="372" stroke="#7dd3fc" stroke-width="2" marker-end="url(#arw)"/>
<rect x="240" y="303" width="138" height="138" rx="16" fill="#0f2847" fill-opacity="0.8" stroke="#7dd3fc" stroke-opacity="0.45"/>
<text x="309" y="475" text-anchor="middle" fill="#e0f2fe" font-family="IBM Plex Mono, Menlo, DejaVu Sans Mono, monospace" font-size="19" font-weight="600">Gmail</text>
<text x="309" y="497" text-anchor="middle" fill="#bae6fd" fill-opacity="0.55" font-family="IBM Plex Mono, Menlo, DejaVu Sans Mono, monospace" font-size="13">gmail_cli.py</text>
<line x1="386" y1="372" x2="408" y2="372" stroke="#7dd3fc" stroke-width="2" marker-end="url(#arw)"/>
<rect x="418" y="303" width="138" height="138" rx="16" fill="#0f2847" fill-opacity="0.8" stroke="#7dd3fc" stroke-opacity="0.45"/>
<text x="487" y="475" text-anchor="middle" fill="#e0f2fe" font-family="IBM Plex Mono, Menlo, DejaVu Sans Mono, monospace" font-size="19" font-weight="600">Chrome</text>
<text x="487" y="497" text-anchor="middle" fill="#bae6fd" fill-opacity="0.55" font-family="IBM Plex Mono, Menlo, DejaVu Sans Mono, monospace" font-size="13">check-in form</text>
<line x1="564" y1="372" x2="586" y2="372" stroke="#7dd3fc" stroke-width="2" marker-end="url(#arw)"/>
<rect x="596" y="303" width="138" height="138" rx="16" fill="#0f2847" fill-opacity="0.8" stroke="#7dd3fc" stroke-opacity="0.45"/>
<text x="665" y="475" text-anchor="middle" fill="#e0f2fe" font-family="IBM Plex Mono, Menlo, DejaVu Sans Mono, monospace" font-size="19" font-weight="600">El Al</text>
<text x="665" y="497" text-anchor="middle" fill="#bae6fd" fill-opacity="0.55" font-family="IBM Plex Mono, Menlo, DejaVu Sans Mono, monospace" font-size="13">boarding pass</text>
<g transform="translate(131 372)"><path d="M-3.4 -13 L-1.9 -44 L1.9 -44 L3.4 -13 Z" fill="#D97757" transform="rotate(0)"/><path d="M-3.4 -13 L-1.9 -44 L1.9 -44 L3.4 -13 Z" fill="#D97757" transform="rotate(30)"/><path d="M-3.4 -13 L-1.9 -44 L1.9 -44 L3.4 -13 Z" fill="#D97757" transform="rotate(60)"/><path d="M-3.4 -13 L-1.9 -44 L1.9 -44 L3.4 -13 Z" fill="#D97757" transform="rotate(90)"/><path d="M-3.4 -13 L-1.9 -44 L1.9 -44 L3.4 -13 Z" fill="#D97757" transform="rotate(120)"/><path d="M-3.4 -13 L-1.9 -44 L1.9 -44 L3.4 -13 Z" fill="#D97757" transform="rotate(150)"/><path d="M-3.4 -13 L-1.9 -44 L1.9 -44 L3.4 -13 Z" fill="#D97757" transform="rotate(180)"/><path d="M-3.4 -13 L-1.9 -44 L1.9 -44 L3.4 -13 Z" fill="#D97757" transform="rotate(210)"/><path d="M-3.4 -13 L-1.9 -44 L1.9 -44 L3.4 -13 Z" fill="#D97757" transform="rotate(240)"/><path d="M-3.4 -13 L-1.9 -44 L1.9 -44 L3.4 -13 Z" fill="#D97757" transform="rotate(270)"/><path d="M-3.4 -13 L-1.9 -44 L1.9 -44 L3.4 -13 Z" fill="#D97757" transform="rotate(300)"/><path d="M-3.4 -13 L-1.9 -44 L1.9 -44 L3.4 -13 Z" fill="#D97757" transform="rotate(330)"/><circle r="6" fill="#D97757"/></g>
<rect x="263" y="342" width="92" height="62" rx="7" fill="#ffffff"/>
<path d="M263 404 L263 350 L285 404 Z" fill="#EA4335"/>
<path d="M355 404 L355 350 L333 404 Z" fill="#EA4335"/>
<path d="M263 342 L309 380 L355 342 L355 354 L309 392 L263 354 Z" fill="#EA4335"/>
<path d="M487.0 372.0 L442.0 372.0 A45 45 0 0 1 509.5 333.0 Z" fill="#EA4335"/>
<path d="M487.0 372.0 L509.5 333.0 A45 45 0 0 1 509.5 411.0 Z" fill="#34A853"/>
<path d="M487.0 372.0 L509.5 411.0 A45 45 0 0 1 442.0 372.0 Z" fill="#FBBC05"/>
<circle cx="487" cy="372" r="20" fill="#ffffff"/>
<circle cx="487" cy="372" r="15" fill="#4285F4"/>
<rect x="613" y="339" width="104" height="66" rx="7" fill="#f0f7fc"/>
<line x1="675" y1="343" x2="675" y2="401" stroke="#0a1628" stroke-opacity="0.35" stroke-width="1.5" stroke-dasharray="3 4"/>
<text x="625" y="365" fill="#0a1628" font-family="IBM Plex Mono, Menlo, DejaVu Sans Mono, monospace" font-size="16" font-weight="600">LY</text>
<text x="625" y="385" fill="#0a1628" fill-opacity="0.6" font-family="IBM Plex Mono, Menlo, DejaVu Sans Mono, monospace" font-size="10">ZAG-TLV</text>
<rect x="683.0" y="349" width="2" height="46" fill="#0a1628"/>
<rect x="687.2" y="349" width="1" height="46" fill="#0a1628"/>
<rect x="691.4" y="349" width="3" height="46" fill="#0a1628"/>
<rect x="695.6" y="349" width="1" height="46" fill="#0a1628"/>
<rect x="699.8" y="349" width="2" height="46" fill="#0a1628"/>
<rect x="704.0" y="349" width="1" height="46" fill="#0a1628"/>
<rect x="708.2" y="349" width="3" height="46" fill="#0a1628"/>
<path d="M750 394 C 900 382, 1000 302, 1108 250" fill="none" stroke="url(#trail)" stroke-width="3" stroke-linecap="round"/>
<g transform="translate(1096 246) rotate(-38) scale(1.32)"><path d="M0 0 L44 -3 L58 0 L44 3 Z" fill="#e0f2fe"/><path d="M14 -1 L-6 -26 L2 -26 L26 -2 Z" fill="#e0f2fe"/><path d="M14 1 L-6 26 L2 26 L26 2 Z" fill="#e0f2fe"/><path d="M2 -1 L-10 -14 L-4 -14 L10 -1 Z" fill="#7dd3fc"/><path d="M2 1 L-10 14 L-4 14 L10 1 Z" fill="#7dd3fc"/></g>
<text x="1140" y="536" text-anchor="end" fill="#bae6fd" fill-opacity="0.8" font-family="Arial Hebrew, Arial, sans-serif" font-size="23">מייל אחד, דפדפן אחד, שבע פקודות</text>
<text x="62" y="536" fill="#7dd3fc" fill-opacity="0.65" font-family="IBM Plex Mono, Menlo, DejaVu Sans Mono, monospace" font-size="14">github.com/tatarco/gmail-skill</text>
</svg>