<svg xmlns="http://www.w3.org/2000/svg" viewBox="0 0 1200 1200" width="1200" height="1200" role="img" aria-label="Claude to Gmail to Chrome to El Al, then a plane taking off">
<defs>
  <pattern id="grid" width="30" height="30" patternUnits="userSpaceOnUse">
    <path d="M30 0H0V30" fill="none" stroke="#7dd3fc" stroke-opacity="0.05" stroke-width="1"/>
  </pattern>
  <linearGradient id="trail" x1="0" y1="1" x2="1" y2="0">
    <stop offset="0" stop-color="#7dd3fc" stop-opacity="0"/>
    <stop offset="1" stop-color="#7dd3fc" stop-opacity="0.9"/>
  </linearGradient>
  <marker id="arw" viewBox="0 0 10 10" refX="8" refY="5" markerWidth="6" markerHeight="6" orient="auto">
    <path d="M0 0L10 5L0 10z" fill="#7dd3fc"/>
  </marker>
</defs>
<rect width="1200" height="1200" fill="#0a1628"/>
<rect width="1200" height="1200" fill="url(#grid)"/>
<rect x="24" y="24" width="1152" height="1152" rx="7" fill="none" stroke="#7dd3fc" stroke-opacity="0.5" stroke-width="2"/>
<rect x="34" y="34" width="1132" height="1132" rx="5" fill="none" stroke="#7dd3fc" stroke-opacity="0.15" stroke-width="1"/>
<text x="1108" y="176" text-anchor="end" fill="#e0f2fe" font-family="Arial Hebrew, Arial, sans-serif" font-size="60" font-weight="700">האייג'נט עשה צ'ק-אין לטיסה</text>
<text x="1108" y="238" text-anchor="end" fill="#7dd3fc" font-family="Arial Hebrew, Arial, sans-serif" font-size="32">ותפס שלושה דברים שאני פספסתי</text>
<line x1="92" y1="288" x2="1108" y2="288" stroke="#7dd3fc" stroke-opacity="0.35" stroke-width="1" stroke-dasharray="4 5"/>
<rect x="92" y="372" width="210" height="210" rx="22" fill="#0f2847" fill-opacity="0.8" stroke="#7dd3fc" stroke-opacity="0.45"/>
<text x="197" y="530" text-anchor="middle" fill="#e0f2fe" font-family="IBM Plex Mono, Menlo, DejaVu Sans Mono, monospace" font-size="23" font-weight="600">Claude</text>
<text x="197" y="556" text-anchor="middle" fill="#bae6fd" fill-opacity="0.55" font-family="IBM Plex Mono, Menlo, DejaVu Sans Mono, monospace" font-size="15">the agent</text>
<rect x="382" y="372" width="210" height="210" rx="22" fill="#0f2847" fill-opacity="0.8" stroke="#7dd3fc" stroke-opacity="0.45"/>
<text x="487" y="530" text-anchor="middle" fill="#e0f2fe" font-family="IBM Plex Mono, Menlo, DejaVu Sans Mono, monospace" font-size="23" font-weight="600">Gmail</text>
<text x="487" y="556" text-anchor="middle" fill="#bae6fd" fill-opacity="0.55" font-family="IBM Plex Mono, Menlo, DejaVu Sans Mono, monospace" font-size="15">gmail_cli.py</text>
<rect x="92" y="692" width="210" height="210" rx="22" fill="#0f2847" fill-opacity="0.8" stroke="#7dd3fc" stroke-opacity="0.45"/>
<text x="197" y="850" text-anchor="middle" fill="#e0f2fe" font-family="IBM Plex Mono, Menlo, DejaVu Sans Mono, monospace" font-size="23" font-weight="600">Chrome</text>
<text x="197" y="876" text-anchor="middle" fill="#bae6fd" fill-opacity="0.55" font-family="IBM Plex Mono, Menlo, DejaVu Sans Mono, monospace" font-size="15">check-in form</text>
<rect x="382" y="692" width="210" height="210" rx="22" fill="#0f2847" fill-opacity="0.8" stroke="#7dd3fc" stroke-opacity="0.45"/>
<text x="487" y="850" text-anchor="middle" fill="#e0f2fe" font-family="IBM Plex Mono, Menlo, DejaVu Sans Mono, monospace" font-size="23" font-weight="600">El Al</text>
<text x="487" y="876" text-anchor="middle" fill="#bae6fd" fill-opacity="0.55" font-family="IBM Plex Mono, Menlo, DejaVu Sans Mono, monospace" font-size="15">boarding pass</text>
<g transform="translate(197 450)"><path d="M-4 -15 L-2.2 -52 L2.2 -52 L4 -15 Z" fill="#D97757" transform="rotate(0)"/><path d="M-4 -15 L-2.2 -52 L2.2 -52 L4 -15 Z" fill="#D97757" transform="rotate(30)"/><path d="M-4 -15 L-2.2 -52 L2.2 -52 L4 -15 Z" fill="#D97757" transform="rotate(60)"/><path d="M-4 -15 L-2.2 -52 L2.2 -52 L4 -15 Z" fill="#D97757" transform="rotate(90)"/><path d="M-4 -15 L-2.2 -52 L2.2 -52 L4 -15 Z" fill="#D97757" transform="rotate(120)"/><path d="M-4 -15 L-2.2 -52 L2.2 -52 L4 -15 Z" fill="#D97757" transform="rotate(150)"/><path d="M-4 -15 L-2.2 -52 L2.2 -52 L4 -15 Z" fill="#D97757" transform="rotate(180)"/><path d="M-4 -15 L-2.2 -52 L2.2 -52 L4 -15 Z" fill="#D97757" transform="rotate(210)"/><path d="M-4 -15 L-2.2 -52 L2.2 -52 L4 -15 Z" fill="#D97757" transform="rotate(240)"/><path d="M-4 -15 L-2.2 -52 L2.2 -52 L4 -15 Z" fill="#D97757" transform="rotate(270)"/><path d="M-4 -15 L-2.2 -52 L2.2 -52 L4 -15 Z" fill="#D97757" transform="rotate(300)"/><path d="M-4 -15 L-2.2 -52 L2.2 -52 L4 -15 Z" fill="#D97757" transform="rotate(330)"/><circle r="7" fill="#D97757"/></g>
<rect x="431" y="412" width="112" height="76" rx="9" fill="#ffffff"/>
<path d="M431 488 L431 422 L458 488 Z" fill="#EA4335"/>
<path d="M543 488 L543 422 L516 488 Z" fill="#EA4335"/>
<path d="M431 412 L487 458 L543 412 L543 427 L487 473 L431 427 Z" fill="#EA4335"/>
<path d="M197.0 770.0 L142.0 770.0 A55 55 0 0 1 224.5 722.4 Z" fill="#EA4335"/>
<path d="M197.0 770.0 L224.5 722.4 A55 55 0 0 1 224.5 817.6 Z" fill="#34A853"/>
<path d="M197.0 770.0 L224.5 817.6 A55 55 0 0 1 142.0 770.0 Z" fill="#FBBC05"/>
<circle cx="197" cy="770" r="24" fill="#ffffff"/>
<circle cx="197" cy="770" r="18" fill="#4285F4"/>
<rect x="424" y="730" width="126" height="80" rx="9" fill="#f0f7fc"/>
<line x1="500" y1="735" x2="500" y2="805" stroke="#0a1628" stroke-opacity="0.35" stroke-width="1.5" stroke-dasharray="3 4"/>
<text x="439" y="764" fill="#0a1628" font-family="IBM Plex Mono, Menlo, DejaVu Sans Mono, monospace" font-size="20" font-weight="600">LY</text>
<text x="439" y="788" fill="#0a1628" fill-opacity="0.6" font-family="IBM Plex Mono, Menlo, DejaVu Sans Mono, monospace" font-size="12">ZAG-TLV</text>
<rect x="508" y="742" width="3" height="56" fill="#0a1628"/>
<rect x="513" y="742" width="1" height="56" fill="#0a1628"/>
<rect x="518" y="742" width="4" height="56" fill="#0a1628"/>
<rect x="523" y="742" width="1" height="56" fill="#0a1628"/>
<rect x="528" y="742" width="2" height="56" fill="#0a1628"/>
<rect x="533" y="742" width="1" height="56" fill="#0a1628"/>
<rect x="538" y="742" width="4" height="56" fill="#0a1628"/>
<line x1="314" y1="477" x2="366" y2="477" stroke="#7dd3fc" stroke-width="2.5" marker-end="url(#arw)"/>
<path d="M487 594 L487 637 L197 637 L197 676" fill="none" stroke="#7dd3fc" stroke-width="2.5" stroke-linejoin="round" marker-end="url(#arw)"/>
<line x1="314" y1="797" x2="366" y2="797" stroke="#7dd3fc" stroke-width="2.5" marker-end="url(#arw)"/>
<path d="M606 797 C 830 797, 950 700, 1035 425" fill="none" stroke="url(#trail)" stroke-width="3.5" stroke-linecap="round"/>
<g transform="translate(1032 408) rotate(-64) scale(1.5)"><path d="M0 0 L44 -3 L58 0 L44 3 Z" fill="#e0f2fe"/><path d="M14 -1 L-6 -26 L2 -26 L26 -2 Z" fill="#e0f2fe"/><path d="M14 1 L-6 26 L2 26 L26 2 Z" fill="#e0f2fe"/><path d="M2 -1 L-10 -14 L-4 -14 L10 -1 Z" fill="#7dd3fc"/><path d="M2 1 L-10 14 L-4 14 L10 1 Z" fill="#7dd3fc"/></g>
<line x1="92" y1="1000" x2="1108" y2="1000" stroke="#7dd3fc" stroke-opacity="0.25" stroke-width="1" stroke-dasharray="4 5"/>
<text x="1108" y="1062" text-anchor="end" fill="#bae6fd" fill-opacity="0.85" font-family="Arial Hebrew, Arial, sans-serif" font-size="30">מייל אחד, דפדפן אחד, שבע פקודות</text>
<text x="1108" y="1108" text-anchor="end" fill="#bae6fd" fill-opacity="0.45" font-family="Arial Hebrew, Arial, sans-serif" font-size="24">בלי אוטומציה שבירה של דפדפן על המייל</text>
<text x="92" y="1108" fill="#7dd3fc" fill-opacity="0.65" font-family="IBM Plex Mono, Menlo, DejaVu Sans Mono, monospace" font-size="17">github.com/tatarco/gmail-skill</text>
</svg>